<svg viewBox="0 0 100 100" fill="none" xmlns="http://www.w3.org/2000/svg">
     <g stroke="#000000" stroke-width="2" stroke-linecap="round" stroke-linejoin="round">
        <!-- Blue Bishop -->
        <path d="M30 75H70L75 85H25L30 75Z" fill="#54a0ff" />
        <path d="M35 75L38 50H62L65 75H35Z" fill="#54a0ff" />
         <path d="M38 50L40 25C40 25 45 10 50 10C55 10 60 25 60 25L62 50H38Z" fill="#54a0ff" />
         <line x1="50" y1="10" x2="50" y2="35" stroke-width="2" />
    </g>
    <!-- Face: Crying -->
    <path d="M42 30L46 32" stroke="black" stroke-width="1.5" />
    <path d="M58 30L54 32" stroke="black" stroke-width="1.5" />
    
    <!-- Tears -->
    <path d="M42 34Q42 38 43 40Q45 38 42 34Z" fill="#00a8ff" />
    <path d="M58 34Q58 38 57 40Q55 38 58 34Z" fill="#00a8ff" />

    <!-- Mouth: Squiggly -->
    <path d="M46 38Q48 36 50 38Q52 40 54 38" stroke="black" stroke-width="1.5" fill="none" />
</svg>
